<?xml version="1.0" encoding="iso-8859-1"?>
<!-- Generator: Adobe Illustrator 17.1.0, SVG Export Plug-In . SVG Version: 6.00 Build 0)  -->
<!DOCTYPE svg PUBLIC "-//W3C//DTD SVG 1.1//EN" "http://www.w3.org/Graphics/SVG/1.1/DTD/svg11.dtd">
<svg xmlns="http://www.w3.org/2000/svg" xmlns:xlink="http://www.w3.org/1999/xlink" version="1.1" id="Capa_1" x="0px" y="0px" viewBox="0 0 442 442" style="enable-background:new 0 0 442 442;" xml:space="preserve" width="512px" height="512px">
<path d="M358.725,422v-73.934c0-0.449-0.04-0.888-0.097-1.322c-0.014-0.101-0.03-0.2-0.046-0.301  c-0.069-0.418-0.156-0.83-0.275-1.229c-0.005-0.016-0.008-0.031-0.012-0.047c-0.131-0.432-0.295-0.848-0.48-1.253  c-0.034-0.075-0.071-0.149-0.108-0.224c-0.186-0.381-0.39-0.752-0.622-1.104c-0.011-0.017-0.019-0.036-0.03-0.053l-0.028-0.042  c-0.007-0.01-0.013-0.019-0.019-0.029l-26.459-39.841l-8.993-163.047l28.14-39.316c0.03-0.041,0.054-0.085,0.083-0.126  c0.065-0.093,0.125-0.188,0.187-0.284c0.098-0.152,0.191-0.305,0.281-0.462c0.062-0.108,0.122-0.216,0.18-0.325  c0.082-0.158,0.157-0.318,0.231-0.479c0.05-0.109,0.103-0.217,0.149-0.328c0.105-0.254,0.2-0.513,0.284-0.775  c0.035-0.109,0.061-0.221,0.093-0.331c0.05-0.179,0.098-0.358,0.139-0.54c0.026-0.119,0.049-0.24,0.071-0.36  c0.035-0.192,0.064-0.385,0.088-0.579c0.013-0.105,0.028-0.209,0.037-0.315c0.028-0.303,0.046-0.607,0.046-0.914V10  c0-5.522-4.478-10-10-10h-52.008c-5.522,0-10,4.478-10,10v27.595h-22.553V10c0-5.522-4.478-10-10-10h-52.008  c-5.522,0-10,4.478-10,10v27.595h-22.553V10c0-5.522-4.478-10-10-10h-52.008c-5.522,0-10,4.478-10,10v84.439  c0,0.306,0.018,0.61,0.046,0.913c0.01,0.106,0.024,0.211,0.037,0.317c0.024,0.194,0.053,0.386,0.088,0.577  c0.022,0.121,0.045,0.242,0.071,0.361c0.04,0.182,0.088,0.361,0.139,0.54c0.031,0.111,0.058,0.222,0.093,0.331  c0.084,0.262,0.179,0.521,0.284,0.775c0.046,0.112,0.1,0.22,0.15,0.329c0.073,0.161,0.148,0.321,0.23,0.478  c0.058,0.11,0.119,0.219,0.18,0.326c0.089,0.156,0.183,0.31,0.28,0.462c0.062,0.095,0.122,0.191,0.187,0.284  c0.029,0.042,0.054,0.085,0.083,0.126l28.14,39.316l-8.993,163.047l-26.459,39.841c-0.006,0.01-0.012,0.019-0.019,0.029  l-0.028,0.042c-0.011,0.017-0.019,0.036-0.03,0.053c-0.231,0.353-0.436,0.723-0.622,1.104c-0.036,0.075-0.073,0.148-0.108,0.224  c-0.185,0.405-0.35,0.821-0.48,1.253c-0.005,0.016-0.008,0.031-0.012,0.047c-0.119,0.399-0.207,0.811-0.275,1.229  c-0.016,0.1-0.032,0.2-0.046,0.301c-0.057,0.433-0.097,0.872-0.097,1.322V422c-5.522,0-10,4.478-10,10s4.478,10,10,10h275.449  c5.522,0,10-4.478,10-10S364.247,422,358.725,422z M140.085,146.615h161.83l8.234,149.274H131.852L140.085,146.615z M119.89,104.439  h129.147c5.522,0,10-4.478,10-10s-4.478-10-10-10H110.436V20h32.008v27.595c0,5.522,4.478,10,10,10h42.553c5.522,0,10-4.478,10-10  V20h32.008v27.595c0,5.522,4.478,10,10,10h42.553c5.522,0,10-4.478,10-10V20h32.008v64.439h-52.527c-5.522,0-10,4.478-10,10  s4.478,10,10,10h43.073l-15.872,22.176H135.762L119.89,104.439z M103.275,358.066h30c5.522,0,10-4.478,10-10s-4.478-10-10-10  h-21.354l14.728-22.177h188.703l14.728,22.177H163.275c-5.522,0-10,4.478-10,10s4.478,10,10,10h175.449V422H103.275V358.066z" fill="#FFFFFF"/>
<g>
</g>
<g>
</g>
<g>
</g>
<g>
</g>
<g>
</g>
<g>
</g>
<g>
</g>
<g>
</g>
<g>
</g>
<g>
</g>
<g>
</g>
<g>
</g>
<g>
</g>
<g>
</g>
<g>
</g>
</svg>
