<?xml version="1.0" encoding="utf-8"?>
<!-- Generator: Adobe Illustrator 18.0.0, SVG Export Plug-In . SVG Version: 6.00 Build 0)  -->
<!DOCTYPE svg PUBLIC "-//W3C//DTD SVG 1.1//EN" "http://www.w3.org/Graphics/SVG/1.1/DTD/svg11.dtd">
<svg version="1.1" id="Layer_1" xmlns="http://www.w3.org/2000/svg" xmlns:xlink="http://www.w3.org/1999/xlink" x="0px" y="0px"
	 viewBox="0 0 841.9 595.3" enable-background="new 0 0 841.9 595.3" xml:space="preserve">
<path fill="#4BCAFF" d="M403.7,297.4c1.2,1.7,2.1,3.7,2.6,5.6c0,0.6-0.5,1.1-1.1,1.1h-62.9c-0.6,0-1.1-0.5-1.1-1.1v-10.8
	c0-0.6,0.5-1.1,1.1-1.1h54.1C399.3,292.4,401.7,294.8,403.7,297.4z M342.3,282.6h148c5.6-1.2,10-6,10.4-11.9c0-0.5-0.5-1-1.1-1
	h-13.2l0,0h-27.1c-4.6,0-8.5,1.7-11.9,5c-0.6,0.6-1.2,1.3-1.7,1.9l0,0c-0.3,0.3-1.1,0.2-1.1-1.1l0,0v-4.8l0,0c0-0.6-0.5-1.1-1.1-1.1
	h-45.3c-0.6,0-1.1,0.5-1.1,1.1l0,0v5.2c0,1.3-0.8,1.4-1.1,1.1l0,0c-0.5-0.8-1.2-1.5-1.9-2.3c-3.3-3.3-7.4-5.1-11.8-5.1h-40.2
	c-0.6,0-1.1,0.5-1.1,1.1v10.8C341.2,282.1,341.7,282.6,342.3,282.6z M486,291.2h-44.8l0,0c-0.6,0-1.1,0.5-1.1,1.1
	c0.8,2.6,2.2,4.9,4.3,7c2.8,2.8,6.1,4.4,9.8,4.9H499c0.6,0,1.1-0.5,1.1-1.1c-0.8-2.5-2.2-4.9-4.3-7
	C492.9,293.3,489.6,291.6,486,291.2z M498.9,312.8h-61.4c-0.6,0-1.1,0.5-1.1,1.1c0.3,3.3,2.3,11.9,13.1,11.9c13.2,0,34.4,0,34.4,0
	c4.6,0,8.5-1.7,11.9-5c2.1-2.1,3.4-4.3,4.3-6.8C500,313.2,499.5,312.8,498.9,312.8z M405.1,312.8h-62.8c-0.6,0-1.1,0.5-1.1,1.1v10.8
	c0,0.6,0.5,1.1,1.1,1.1h47.8c4.5,0,8.4-1.7,11.8-5.1c2.1-2.1,3.4-4.3,4.3-6.8C406.2,313.2,405.7,312.8,405.1,312.8z M427.6,291.2
	h-11.1c-0.6,0-1.1,0.5-1.1,1.1l0,0v32.3l0,0c0,0.5,0.5,1.1,1,1.1c6.8-0.5,12.2-6.2,12.2-13.2v-20.2l0,0
	C428.7,291.7,428.2,291.2,427.6,291.2z"/>
</svg>
