<?xml version="1.0" encoding="utf-8"?>
<!-- Generator: Adobe Illustrator 18.0.0, SVG Export Plug-In . SVG Version: 6.00 Build 0)  -->
<!DOCTYPE svg PUBLIC "-//W3C//DTD SVG 1.1//EN" "http://www.w3.org/Graphics/SVG/1.1/DTD/svg11.dtd">
<svg version="1.1" id="Layer_1" xmlns="http://www.w3.org/2000/svg" xmlns:xlink="http://www.w3.org/1999/xlink" x="0px" y="0px"
	 viewBox="0 0 841.9 595.3" enable-background="new 0 0 841.9 595.3" xml:space="preserve">
<g>
	<path fill="#D71921" d="M348.3,247.2c8.6,0,17.1,0,25.7,0c0,26.1,0,52.2,0,78.3c-3.5,0-7,0-10.5,0c0-22.6,0-45.2,0-67.8
		c-5.1,0-10.1,0-15.2,0C348.3,254.3,348.3,250.7,348.3,247.2z"/>
	<path fill="#D71921" d="M414.2,247.6c3.4-0.5,6.8-0.5,10.2,0c7.3,0.9,14.4,4.1,20,8.9c7.4,6.2,12.3,15.1,13.5,24.7
		c0.3,1.6,0.2,3.2,0.4,4.8c-3.5,0-7,0-10.5,0c0-6.7-2.6-13.3-6.9-18.3c-3.8-4.4-9-7.7-14.7-9.1c-6-1.5-12.6-1-18.3,1.5
		c-6.4,2.7-11.6,7.9-14.6,14.1c-2.3,4.9-3.2,10.5-2.5,15.9c0.8,6.6,4.1,12.8,8.9,17.2c2.7,2.4,5.7,4.5,9.1,5.6c3,1.2,6.3,1.6,9.5,2
		c2.2,0.3,4.5,0.1,6.8,0.2c26.6,0,53.2,0,79.8,0c0,3.5,0,6.9,0,10.4c-26.4,0-52.7,0-79.1,0c-2.7-0.2-5.4,0-8.2-0.3
		c-4.7-0.5-9.4-1.2-13.7-3.1c-7.2-2.9-13.3-8.2-17.5-14.6c-4.8-7.3-7-16.3-6.1-25c0.7-7.7,3.8-15.2,8.8-21.1
		C395.4,254,404.5,248.9,414.2,247.6z"/>
	<g>
		<path fill="#D71921" d="M477.5,248.1c2.2-0.4,4.7,0.3,6.3,1.9c2.4,2.3,2.6,6.4,0.6,9c-2.1,2.9-6.6,3.5-9.5,1.4
			c-2.4-1.7-3.6-5.1-2.5-7.9C473.1,250.3,475.1,248.5,477.5,248.1z M477.5,249.3c-1.6,0.4-3.1,1.5-3.9,3.1c-0.9,1.8-0.7,4,0.4,5.6
			c0.8,1.2,2.1,2.1,3.5,2.4c1.3,0.1,2.7,0.1,3.9-0.5c2-1,3.3-3.4,3-5.6C484.2,250.9,480.6,248.5,477.5,249.3z"/>
	</g>
	<g>
		<path fill="#D71921" d="M476.3,251.4c1.2,0,2.4-0.1,3.6,0c1,0,1.8,1.1,1.6,2.1c0,0.6-0.5,1-0.9,1.4c1,0.8,0.6,2.2,0.8,3.3
			c-0.5,0-0.9,0-1.4,0c-0.2-0.7,0-1.5-0.3-2.2c-0.5-0.7-1.5-0.5-2.3-0.6c0,0.9,0,1.9,0,2.8c-0.4,0-0.8,0-1.3,0
			C476.3,255.9,476.4,253.7,476.3,251.4z M477.7,252.4c0,0.7,0,1.3,0,2c0.7,0,1.4,0,2-0.1c0.8-0.3,0.8-1.5,0-1.8
			C479.1,252.3,478.4,252.4,477.7,252.4z"/>
	</g>
	<path fill="#D71921" d="M336.8,262.8c1.7,0.2,3.4,0,5,0.1c2.6-0.1,5.1,0.1,7.7,0c2.9,0.1,5.8,0,8.7,0c0,20.9,0,41.8,0,62.7
		c-3.4,0-6.7,0-10,0c0-17.5,0-35,0-52.5c-3.8,0-7.7,0-11.5,0C336.8,269.6,336.8,266.2,336.8,262.8z"/>
	<path fill="#D71921" d="M413.3,264.9c4.4-1.3,9.3-1.1,13.6,0.5c4.5,1.6,8.4,4.7,11,8.7c2.3,3.5,3.6,7.7,3.6,11.9c-3.3,0-6.7,0-10,0
		c-0.1-3.4-1.7-6.8-4.3-9c-2.2-1.8-5-3-7.8-2.9c-3.3-0.1-6.6,1.2-8.8,3.6c-2.3,2.3-3.7,5.6-3.6,8.9c0,4.1,2.2,8,5.7,10.2
		c2.6,1.6,5.7,2,8.8,2.1c10.7,0.1,21.4,0,32.1,0c17.2,0,34.4,0,51.6,0c0,3.3,0,6.7,0,10c-26.5,0-53,0-79.6,0c-3.5,0-6.9,0-10.3-0.7
		c-4.7-0.8-9.1-3.3-12.3-6.8c-3.2-3.4-5.2-7.9-5.7-12.5c-0.7-5.8,1-11.8,4.6-16.3C404.6,268.9,408.7,266.1,413.3,264.9z"/>
	<path fill="#D71921" d="M449.7,332.3c0.7-0.3,1.4-0.5,2-0.8c0.5,0.6,1,1.2,1.8,1c0.8,0.1,1.4-0.5,1.9-1c0.7,0.3,1.3,0.5,2,0.8
		C455.8,335,451.2,335,449.7,332.3z"/>
	<g>
		<path fill="#D71921" d="M377,334.3c1.2,0,2.4,0,3.6,0c0,0.4,0,0.8,0,1.3c1.6,0.1,3.3,0.3,4.5,1.5c1.6,1.5,1.7,4.1,0.9,6
			c-0.9,2-3.4,2.7-5.4,2.7c0,0.6,0,1.2,0,1.8c-1.2,0-2.4,0-3.5,0c0-0.6,0-1.2,0-1.8c-1.7,0-3.5-0.4-4.8-1.7
			c-1.1-1.2-1.2-2.8-1.1-4.3c0.2-1.4,1-2.7,2.3-3.4c1.1-0.6,2.3-0.7,3.6-0.8C377,335.2,377,334.8,377,334.3z M375.1,339.1
			c-0.7,0.9-0.7,2.4,0,3.3c0.5,0.6,1.3,0.7,2,0.9c0-1.7,0-3.4,0-5.1C376.5,338.3,375.6,338.5,375.1,339.1z M380.3,338.3
			c0,1.7,0,3.4,0,5.1c0.7-0.2,1.5-0.3,2-0.9c0.8-1,0.7-2.5-0.1-3.4C381.7,338.4,381,338.3,380.3,338.3z"/>
	</g>
	<path fill="#D71921" d="M356.5,336.9c1.9-2.5,5.8-3.1,8.3-1.3c0.1,1.2,0,2.5,0,3.7c-1-1.1-2.5-1.9-3.9-1.4
		c-2.1,0.7-2.8,3.6-1.6,5.4c0.7,1.2,2.2,1.6,3.5,1.3c0.8-0.2,1.4-0.7,2.1-1.2c0,1.2,0.1,2.5,0,3.7c-2.9,2-7.5,0.7-9-2.5
		C354.7,342.2,354.8,339,356.5,336.9z"/>
	<g>
		<path fill="#D71921" d="M400.7,334.9c1.4,0,2.8,0,4.2,0c1.6,4.2,3,8.5,4.5,12.7c-1.3,0-2.5,0-3.7,0c-0.3-0.7-0.5-1.5-0.7-2.2
			c-1.4,0-2.8,0-4.2,0c-0.2,0.7-0.5,1.5-0.7,2.2c-1.3,0-2.5,0-3.8,0C397.7,343.4,399.2,339.2,400.7,334.9z M402.8,338.1
			c-0.5,1.5-0.9,3-1.4,4.5c0.9,0,1.9,0,2.8,0C403.7,341.1,403.3,339.6,402.8,338.1z"/>
	</g>
	<path fill="#D71921" d="M422.8,335c1.2-0.1,2.4,0,3.6,0c0.1,1.4-0.1,2.8,0.1,4.2c0.5,1.2,2,0.8,3,0.8c0-1.7,0-3.3,0-5
		c1.2,0,2.4,0,3.6,0c0,4.2,0,8.4,0,12.7c-1.2,0-2.4,0-3.6,0c0-1.6,0-3.2,0-4.8c-1.8,0.1-3.6,0.4-5.3-0.5c-1-0.5-1.4-1.7-1.4-2.7
		C422.7,338,422.8,336.5,422.8,335z"/>
	<g>
		<path fill="#D71921" d="M438.3,334.9c1.4,0,2.8,0,4.2,0c1.6,4.2,3,8.4,4.5,12.7c-1.3,0-2.5,0-3.7,0c-0.3-0.7-0.5-1.5-0.8-2.2
			c-1.4,0-2.8,0-4.1,0c-0.2,0.7-0.5,1.5-0.7,2.2c-1.3,0-2.5,0-3.8,0C435.3,343.4,436.7,339.1,438.3,334.9z M439,342.6
			c0.9,0,1.9,0,2.8,0c-0.5-1.4-0.9-2.9-1.4-4.3C439.9,339.6,439.5,341.1,439,342.6z"/>
	</g>
	<path fill="#D71921" d="M455.9,334.9c1.1,0,2.2,0,3.4,0c0.1,4.2,0.1,8.5,0,12.7c-1.1,0-2.2,0-3.3,0c0-2.5,0-4.9,0-7.4
		c-1.7,2.4-3.2,5-4.8,7.4c-1.1,0-2.2,0-3.4,0c-0.2-2,0-4.1-0.1-6.1c0-2.2-0.1-4.4,0.1-6.6c1.1,0,2.2,0,3.3,0c0.2,2.5,0,4.9,0.1,7.4
		C452.7,339.9,454.3,337.4,455.9,334.9z"/>
	<path fill="#D71921" d="M460.8,335.7c2.1-1.1,4.7-1.6,6.9-0.6c1.3,0.5,2.3,1.8,2.2,3.3c0,1.2-0.9,2.2-2,2.7
		c1.1,0.4,2.2,1.3,2.2,2.6c0.2,1.2-0.3,2.5-1.3,3.2c-1.5,1.1-3.4,1.4-5.2,1c-1.3-0.3-2.4-1.1-3.4-1.8c0.5-0.8,1-1.6,1.5-2.4
		c0.9,0.8,2,1.5,3.2,1.4c0.7,0,1.5-0.4,1.6-1.2c0.1-0.7-0.5-1.3-1.1-1.4c-0.9-0.1-1.9,0-2.8,0c0-0.9,0-1.7,0-2.6
		c1,0,2.2,0.2,3.2-0.2c0.8-0.3,0.9-1.6,0.1-2c-1.2-0.7-2.7-0.1-3.7,0.6C461.6,337.4,461.2,336.6,460.8,335.7z"/>
	<path fill="#D71921" d="M471.4,334.9c1.1,0,2.3,0,3.4,0c0,2.5,0,4.9,0,7.4c1.6-2.4,3.2-4.9,4.7-7.4c1.2,0,2.3,0,3.5,0
		c0,4.2,0,8.4,0,12.7c-1.1,0-2.3,0-3.4,0c0-2.5,0-4.9,0-7.4c-1.6,2.4-3.1,5-4.8,7.4c-1.1,0-2.3,0-3.4,0
		C471.4,343.4,471.4,339.2,471.4,334.9z"/>
	<path fill="#D71921" d="M492.2,334.9c1.2,0,2.3,0,3.4,0c0,4.2,0,8.5,0,12.7c-1.2,0-2.3,0-3.4,0c0-1.7,0-3.4,0-5.1
		c-1.4,0-2.8,0-4.2,0c0,1.7,0,3.4,0,5c-1.2,0-2.3,0-3.5,0c0-4.2,0-8.5,0-12.7c1.2,0,2.3,0,3.4,0c0,1.5,0,3,0,4.5c1.4,0,2.8,0,4.2,0
		C492.2,338,492.1,336.4,492.2,334.9z"/>
	<path fill="#D71921" d="M348.2,337.9c0-1,0-2,0-2.9c1.7,0,3.4,0,5.1,0c0,4.2,0,8.5,0,12.7c-1.1,0-2.2,0-3.2,0c0-3.2,0-6.5,0-9.7
		C349.5,337.9,348.9,337.9,348.2,337.9z"/>
	<g>
		<path fill="#D71921" d="M387.5,347.6c0-4.2,0-8.4,0-12.7c1.7,0,3.5,0,5.2,0c1.2,0,2.4,0.3,3.3,1.1c1.9,1.7,1.7,5.3-0.5,6.7
			c-1.3,0.9-3,0.8-4.5,0.8c0,1.4,0,2.7,0,4C389.9,347.7,388.7,347.6,387.5,347.6z M391.1,337.7c0,1,0,2,0,2.9c0.7,0,1.4,0,2-0.3
			c0.4-0.3,0.5-0.8,0.7-1.3c-0.2-0.4-0.4-1-0.9-1.2C392.3,337.7,391.7,337.8,391.1,337.7z"/>
	</g>
	<path fill="#D71921" d="M497.4,347.6c0-4.2,0-8.4,0-12.7c2.5,0.1,5-0.1,7.5,0.1c0,1,0,2,0,3c-1.4,0-2.7,0-4.1,0c0,3.2,0,6.4,0,9.6
		C499.7,347.6,498.6,347.6,497.4,347.6z"/>
	<path fill="#D71921" d="M410.3,335c0.6,0,1.2,0,1.7,0c0.6,0,1.2,0,1.8,0c0,1.5,0,3,0,4.6c1.4,0,2.7,0,4.1,0c0-1.5,0-3,0-4.5
		c1.2,0,2.4,0,3.5,0c0,4.2,0,8.4,0,12.7c-1.2,0-2.4,0-3.5,0c0-1.7,0-3.4,0-5c-1.4,0-2.8,0-4.1,0c0,1.7,0,3.4,0,5.1
		c-1.2,0-2.4,0-3.5,0C410.3,343.4,410.3,339.2,410.3,335z"/>
	<path fill="#D71921" d="M366.5,341.2c-0.6-1.1,0.2-2.5,1.4-2.7c1.1-0.2,2.3,0.8,2.1,2c0,1-1,1.6-1.9,1.8
		C367.5,342.1,366.8,341.9,366.5,341.2z"/>
	<path fill="#D71921" d="M367.5,344.3c1.2-0.5,2.6,0.5,2.5,1.8c0.1,1.4-1.8,2.6-2.9,1.5C365.9,346.8,366.1,344.7,367.5,344.3z"/>
</g>
</svg>
